<svg width="314" height="386" viewBox="0 0 314 386" fill="none" xmlns="http://www.w3.org/2000/svg">
<g filter="url(#filter0_d)">
<path d="M166.315 0.299805C218.703 0.299805 255.986 9.28602 278.165 27.2584C300.344 44.8485 311.433 66.6448 311.433 92.6475C311.433 125.533 297.285 152.301 268.988 172.95C258.281 180.98 245.279 188.246 229.984 194.746L220.806 198.761C218.13 199.908 215.453 207.939 212.776 222.852C210.482 237.383 209.335 247.899 209.335 254.399C207.423 256.311 201.878 258.606 192.701 261.282C183.906 263.577 176.449 264.724 170.331 264.724C164.595 264.724 160.197 264.342 157.138 263.577C152.932 256.694 150.829 241.78 150.829 218.837C150.829 195.893 151.785 181.171 153.697 174.671C214.115 160.14 244.323 135.667 244.323 101.251C244.323 71.4247 216.791 56.5114 161.727 56.5114C142.225 56.5114 128.076 58.4234 119.281 62.2473C116.987 58.4234 115.84 50.3932 115.84 38.1566C115.84 25.9201 117.56 15.5955 121.002 7.18288C131.327 2.59416 146.431 0.299805 166.315 0.299805ZM149.681 370.838C142.416 363.19 138.783 354.013 138.783 343.306C138.783 332.599 142.416 323.612 149.681 316.347C157.329 308.699 166.507 304.875 177.214 304.875C187.921 304.875 196.907 308.699 204.172 316.347C211.82 323.612 215.644 332.599 215.644 343.306C215.644 354.013 211.82 363.19 204.172 370.838C196.907 378.103 187.921 381.736 177.214 381.736C166.507 381.736 157.329 378.103 149.681 370.838Z" fill="#EE4D4D"/>
<path d="M23.0323 198.702C48.2561 191.85 67.3827 191.3 80.4121 197.053C93.3914 202.621 101.582 211.665 104.983 224.185C109.284 240.019 105.973 254.758 95.0488 268.401C90.9439 273.668 85.6343 278.867 79.1199 283.997L75.2263 287.131C74.0875 288.033 73.849 292.25 74.5108 299.78C75.3066 307.077 76.1297 312.29 76.9799 315.42C76.3094 316.591 73.9398 318.42 69.8712 320.91C65.9366 323.165 62.4964 324.692 59.5506 325.492C56.7888 326.243 54.6215 326.634 53.0485 326.666C50.123 323.902 47.1598 316.996 44.1589 305.949C41.1581 294.902 39.6928 287.689 39.7631 284.309C66.9528 269.41 78.297 253.676 73.7957 237.105C69.8945 222.744 54.6877 219.165 28.1751 226.367C18.7852 228.918 12.223 231.689 8.48849 234.68C6.88366 233.139 5.28101 229.423 3.68054 223.531C2.08008 217.64 1.55821 212.443 2.11493 207.943C6.48587 204.383 13.4583 201.303 23.0323 198.702ZM63.4874 379.285C58.9889 376.553 56.0394 372.61 54.639 367.454C53.2386 362.299 53.8124 357.497 56.3603 353.049C59.0423 348.366 62.9609 345.325 68.1161 343.924C73.2714 342.524 78.0982 343.19 82.5967 345.922C87.2293 348.42 90.2458 352.246 91.6462 357.401C93.0466 362.557 92.4058 367.476 89.7238 372.158C87.1759 376.607 83.3243 379.531 78.1691 380.931C73.0138 382.332 68.1199 381.783 63.4874 379.285Z" fill="#EE4D4D"/>
</g>
<defs>
<filter id="filter0_d" x="0.402619" y="0.299805" width="313.525" height="385.428" filterUnits="userSpaceOnUse" color-interpolation-filters="sRGB">
<feFlood flood-opacity="0" result="BackgroundImageFix"/>
<feColorMatrix in="SourceAlpha" type="matrix" values="0 0 0 0 0 0 0 0 0 0 0 0 0 0 0 0 0 0 127 0" result="hardAlpha"/>
<feOffset dx="0.498932" dy="1.99573"/>
<feGaussianBlur stdDeviation="0.997863"/>
<feComposite in2="hardAlpha" operator="out"/>
<feColorMatrix type="matrix" values="0 0 0 0 0 0 0 0 0 0 0 0 0 0 0 0 0 0 0.25 0"/>
<feBlend mode="normal" in2="BackgroundImageFix" result="effect1_dropShadow"/>
<feBlend mode="normal" in="SourceGraphic" in2="effect1_dropShadow" result="shape"/>
</filter>
</defs>
</svg>
